<svg xmlns="http://www.w3.org/2000/svg" viewBox="64 32 256 312" width="32" height="32">
    <defs>
        <style>.cls-1{fill:#2399ff;}.cls-2{fill:none;}</style>
    </defs>
    <g id="Layer_1">
        <path class="cls-1"
              d="M281,179.53v0a2.46,2.46,0,0,0-.22-.61l-.07-.13a2.5,2.5,0,0,0-.4-.54l-24.12-24.12,6.8-5a2.61,2.61,0,0,0,1.92-2.45V126.26l6.42-6.43a2.5,2.5,0,0,0-1.77-4.27h-6.84a2.48,2.48,0,0,0-.4,0H233.35a2.5,2.5,0,0,0-1.49.49l-7.93,5.88L195.27,93.24a2.5,2.5,0,0,0-.53-.39l-.14-.07a2.47,2.47,0,0,0-.61-.22h0a2.51,2.51,0,0,0-.46,0h-85a2.5,2.5,0,0,0-1.77,4.27l63.47,63.47-48.33,34.47a2.5,2.5,0,0,0,1.45,4.54l70.16.06h0a2.5,2.5,0,0,0,.45,0l.08,0a2.5,2.5,0,0,0,.37-.11l.08,0a2.48,2.48,0,0,0,.38-.2h0l.09-.06,8-5.83,73.78,73.78A2.5,2.5,0,0,0,281,265V180A2.5,2.5,0,0,0,281,179.53Zm-8.49-2H224.14l27.92-20.41Zm-12.7-33.31H246.92l12.85-12.85Zm-63.77,0V101l43.16,43.15Zm38.18-23.67h25.59v3.75L243,141l-15.53-15.53ZM191,97.5V174L114.54,97.5Zm-59.87,96.75,42.66-30.42L191,181V194.3Zm64.88-45h58.32L196,191.88ZM276,259l-69-69,10.26-7.5H276Z"/>
        <rect class="cls-2" width="256" height="256"/>
    </g>
</svg>